HIERARCHY
ROOT Hips
{
	OFFSET 0.000000 89.005402 0.000000
	CHANNELS 6 Xposition Yposition Zposition Xrotation Yrotation Zrotation
	JOINT Spine
	{
		OFFSET 0.116900 10.681000 0.373400
		CHANNELS 3 Xrotation Yrotation Zrotation
		JOINT Spine1
		{
			OFFSET 0.000000 13.840401 0.053500
			CHANNELS 3 Xrotation Yrotation Zrotation
			JOINT Spine2
			{
				OFFSET 0.000000 14.712700 -0.366200
				CHANNELS 3 Xrotation Yrotation Zrotation
				JOINT Neck
				{
					OFFSET 0.000000 35.415497 -3.314200
					CHANNELS 3 Xrotation Yrotation Zrotation
					JOINT Head
					{
						OFFSET 0.000000 16.899200 1.218300
						CHANNELS 3 Xrotation Yrotation Zrotation
						JOINT HeadTop_End
						{
							OFFSET 0.000000 22.206207 2.192500
							CHANNELS 3 Xrotation Yrotation Zrotation
							End Site
							{
								OFFSET 0.000000 22.314178 0.000000
							}
						}
					}
				}
				JOINT LeftShoulder
				{
					OFFSET 12.896400 26.716293 -4.548400
					CHANNELS 3 Xrotation Yrotation Zrotation
					JOINT LeftArm
					{
						OFFSET 19.027000 -4.857010 -1.718400
						CHANNELS 3 Xrotation Yrotation Zrotation
						JOINT LeftForeArm
						{
							OFFSET 24.179897 0.000000 0.000000
							CHANNELS 3 Xrotation Yrotation Zrotation
							JOINT LeftHand
							{
								OFFSET 27.156403 0.000000 0.000000
								CHANNELS 3 Xrotation Yrotation Zrotation
								JOINT LeftHandIndex1
								{
									OFFSET 16.441200 0.000000 0.000000
									CHANNELS 3 Xrotation Yrotation Zrotation
									JOINT LeftHandIndex2
									{
										OFFSET 4.821899 0.000000 0.000000
										CHANNELS 3 Xrotation Yrotation Zrotation
										JOINT LeftHandIndex3
										{
											OFFSET 6.386497 0.000000 0.000000
											CHANNELS 3 Xrotation Yrotation Zrotation
											JOINT LeftHandIndex4
											{
												OFFSET 5.188988 0.000000 0.000000
												CHANNELS 3 Xrotation Yrotation Zrotation
												End Site
												{
													OFFSET -0.178703 5.185913 0.000177
												}
											}
										}
									}
								}
								JOINT LeftHandThumb1
								{
									OFFSET 6.534897 -5.032593 5.900300
									CHANNELS 3 Xrotation Yrotation Zrotation
									JOINT LeftHandThumb2
									{
										OFFSET 3.818176 -2.204422 2.204423
										CHANNELS 3 Xrotation Yrotation Zrotation
										JOINT LeftHandThumb3
										{
											OFFSET 3.252098 -1.877594 1.877601
											CHANNELS 3 Xrotation Yrotation Zrotation
											JOINT LeftHandThumb4
											{
												OFFSET 5.251778 -3.032120 3.032117
												CHANNELS 3 Xrotation Yrotation Zrotation
												End Site
												{
													OFFSET 0.000023 6.780014 0.000000
												}
											}
										}
									}
								}
							}
						}
					}
				}
				JOINT RightShoulder
				{
					OFFSET -12.896300 26.716293 -4.548400
					CHANNELS 3 Xrotation Yrotation Zrotation
					JOINT RightArm
					{
						OFFSET -19.027000 -4.857010 -1.718400
						CHANNELS 3 Xrotation Yrotation Zrotation
						JOINT RightForeArm
						{
							OFFSET -24.179897 0.000000 0.000000
							CHANNELS 3 Xrotation Yrotation Zrotation
							JOINT RightHand
							{
								OFFSET -27.156403 0.000000 0.000000
								CHANNELS 3 Xrotation Yrotation Zrotation
								JOINT RightHandThumb1
								{
									OFFSET -6.591202 -4.852203 5.988100
									CHANNELS 3 Xrotation Yrotation Zrotation
									JOINT RightHandThumb2
									{
										OFFSET -3.818176 -2.204422 2.204423
										CHANNELS 3 Xrotation Yrotation Zrotation
										JOINT RightHandThumb3
										{
											OFFSET -3.252098 -1.877594 1.877601
											CHANNELS 3 Xrotation Yrotation Zrotation
											JOINT RightHandThumb4
											{
												OFFSET -5.251778 -3.032120 3.032117
												CHANNELS 3 Xrotation Yrotation Zrotation
												End Site
												{
													OFFSET -0.000023 6.780014 0.000000
												}
											}
										}
									}
								}
								JOINT RightHandIndex1
								{
									OFFSET -16.029404 0.000000 0.000000
									CHANNELS 3 Xrotation Yrotation Zrotation
									JOINT RightHandIndex2
									{
										OFFSET -5.213303 0.000000 0.000000
										CHANNELS 3 Xrotation Yrotation Zrotation
										JOINT RightHandIndex3
										{
											OFFSET -6.386528 0.000000 0.000000
											CHANNELS 3 Xrotation Yrotation Zrotation
											JOINT RightHandIndex4
											{
												OFFSET -5.189026 0.000000 0.000000
												CHANNELS 3 Xrotation Yrotation Zrotation
												End Site
												{
													OFFSET 0.236702 5.183624 0.001972
												}
											}
										}
									}
								}
							}
						}
					}
				}
			}
		}
	}
	JOINT LeftUpLeg
	{
		OFFSET 14.073000 -7.904099 -1.463000
		CHANNELS 3 Xrotation Yrotation Zrotation
		JOINT LeftLeg
		{
			OFFSET -0.109806 -34.073280 4.093200
			CHANNELS 3 Xrotation Yrotation Zrotation
			JOINT LeftFoot
			{
				OFFSET 0.109806 -29.899420 -6.319000
				CHANNELS 3 Xrotation Yrotation Zrotation
				JOINT LeftToeBase
				{
					OFFSET 1.551100 -14.988700 20.535801
					CHANNELS 3 Xrotation Yrotation Zrotation
					JOINT LeftToe_End
					{
						OFFSET 0.221200 0.570800 13.248301
						CHANNELS 3 Xrotation Yrotation Zrotation
						End Site
						{
							OFFSET 0.000000 13.262435 0.000000
						}
					}
				}
			}
		}
	}
	JOINT RightUpLeg
	{
		OFFSET -13.839300 -7.904099 -1.463000
		CHANNELS 3 Xrotation Yrotation Zrotation
		JOINT RightLeg
		{
			OFFSET 0.109694 -34.073219 4.093300
			CHANNELS 3 Xrotation Yrotation Zrotation
			JOINT RightFoot
			{
				OFFSET -0.109694 -29.899384 -6.319200
				CHANNELS 3 Xrotation Yrotation Zrotation
				JOINT RightToeBase
				{
					OFFSET -1.551100 -14.988700 20.535801
					CHANNELS 3 Xrotation Yrotation Zrotation
					JOINT RightToe_End
					{
						OFFSET -0.221200 0.570900 13.248299
						CHANNELS 3 Xrotation Yrotation Zrotation
						End Site
						{
							OFFSET 0.000000 13.262440 0.000000
						}
					}
				}
			}
		}
	}
}
MOTION
Frames: 8
Frame Time: 0.033333
-3.189798 80.304825 31.149612 -12.050133 -3.450724 7.632471 12.634177 -0.270626 2.139411 2.603474 -0.032090 -3.851990 2.600966 -0.107573 -3.851049 -2.822844 2.135470 -4.830142 -7.098501 3.340038 3.303188 -0.000000 0.000000 -0.000000 1.289653 -3.636343 -7.174992 -27.283544 -42.623024 -30.889254 -0.000003 -5.360373 -0.000003 -66.052758 1.298722 3.690324 0.040324 0.745733 -6.191867 1.085014 3.715156 -32.551360 0.040320 0.745760 -6.191880 0.000000 -0.000001 0.000001 -1.004028 4.733027 -1.146352 3.939061 7.948704 0.746828 -0.579458 1.575006 2.538719 0.000001 -0.000001 -0.000003 1.747535 6.978523 -3.886985 -41.999639 29.051175 87.051273 -0.000013 40.938422 0.000023 -48.879347 0.201270 -10.782346 -1.962634 -3.287471 -8.478704 4.637200 -8.634150 -0.225395 -1.273756 0.137315 -2.094876 0.000002 0.000001 0.000000 0.000007 -0.007786 0.063884 0.029079 -0.636570 5.230893 -0.000007 -0.007793 0.063910 0.000002 -0.000001 -0.000000 -15.765784 17.181964 -12.995308 20.033484 -0.084463 -1.433434 9.762427 -0.378295 10.486477 -1.263206 0.000000 -0.000001 -0.000000 -0.000000 0.000000 -7.532344 4.392864 -3.853743 64.171608 -2.609036 -0.184896 -25.553479 0.685877 -1.352428 -19.001180 0.003701 -0.053212 0.000000 0.000000 0.000000 
-3.160461 79.860550 31.235590 -11.950803 -3.029013 7.267516 12.820619 0.334425 1.423894 2.477664 0.067461 -3.569618 2.479907 -0.011514 -3.567223 -2.580142 1.866435 -4.968236 -9.432526 2.017927 3.340203 0.000000 -0.000000 -0.000000 1.194533 -2.375251 -8.277509 -29.113507 -41.145381 -34.535653 0.000004 -7.237152 0.000005 -65.064116 -0.074972 3.649309 0.038879 0.732223 -6.079292 1.056761 3.670602 -32.112664 0.038882 0.732234 -6.079287 0.000002 -0.000001 -0.000001 -1.016442 4.712175 -0.995420 3.939063 7.948710 0.746821 -0.579458 1.574999 2.538727 0.000000 0.000001 0.000000 1.755265 6.954867 -3.500678 -37.010579 25.899502 84.602746 -0.000017 44.064081 0.000024 -46.314850 -0.830871 -11.048803 -1.960485 -3.293345 -8.441250 4.637195 -8.634135 -0.225396 -1.273758 0.137319 -2.094885 0.000001 0.000001 0.000001 0.000014 -0.010409 0.085415 0.029754 -0.643910 5.291411 0.000017 -0.010416 0.085401 0.000002 -0.000001 -0.000000 -18.112388 15.040206 -11.899140 21.731739 -2.652660 -1.759349 10.432693 -0.293992 9.944470 -1.293626 0.000001 -0.000000 -0.000000 -0.000000 0.000000 -7.415161 7.079777 -1.838236 64.295446 -3.864851 -0.385510 -26.713529 0.360511 -0.776035 -17.933990 0.000132 -0.003224 0.000000 0.000000 0.000000 
-3.227530 79.694366 30.958462 -11.694681 -2.556088 6.456684 12.928261 0.724823 0.853579 2.401379 0.129416 -3.212337 2.406518 0.052499 -3.209097 -2.220083 1.577830 -4.665769 -11.451125 1.213125 3.138859 -0.000001 -0.000000 -0.000000 1.125466 -1.175364 -8.976380 -31.070841 -40.159733 -39.435279 -0.000009 -8.492618 -0.000008 -64.263672 -1.107327 4.445003 0.035544 0.700210 -5.812481 0.991171 3.564179 -31.073174 0.035543 0.700219 -5.812474 -0.000003 -0.000000 0.000001 -1.045664 4.662650 -0.637758 3.939058 7.948715 0.746821 -0.579460 1.575007 2.538726 0.000001 0.000002 0.000000 1.749680 6.858397 -3.043836 -32.716220 23.643340 82.393624 -0.000023 46.867402 0.000023 -44.091856 -1.933375 -11.494571 -1.959409 -3.296272 -8.422546 4.637189 -8.634124 -0.225388 -1.273757 0.137314 -2.094880 -0.000000 0.000004 0.000002 0.000012 -0.014992 0.122975 0.030956 -0.656734 5.397081 0.000012 -0.014981 0.122975 0.000000 -0.000002 0.000001 -20.127873 12.985008 -10.564182 22.244147 -4.549701 -2.036544 11.535614 -0.232183 9.244011 -1.511199 -0.000001 -0.000003 0.000000 0.000000 -0.000000 -7.069609 8.549186 0.231009 62.736046 -3.943990 -0.754418 -27.750963 0.478934 -1.157961 -15.831224 0.000013 -0.000823 0.000000 0.000000 -0.000000 
-3.435032 79.850815 30.188723 -11.150484 -2.001425 5.252606 12.768744 0.819445 0.489612 2.416932 0.138288 -2.765402 2.422179 0.071275 -2.762054 -1.703997 1.246987 -3.685860 -13.118276 1.066402 2.630921 -0.000000 -0.000000 0.000000 1.088100 -0.582534 -8.828513 -33.105906 -39.955934 -45.678512 -0.000004 -8.931622 -0.000002 -64.261049 -1.536526 6.058700 0.030851 0.652417 -5.414497 0.896994 3.403274 -29.523182 0.030851 0.652426 -5.414494 -0.000001 0.000001 -0.000001 -1.088677 4.588411 -0.104381 3.939052 7.948720 0.746807 -0.579461 1.575002 2.538724 -0.000001 -0.000002 -0.000001 1.720544 6.616361 -2.415100 -29.355890 22.754210 79.693609 0.000011 49.163729 -0.000009 -42.802306 -2.879555 -11.898569 -1.958180 -3.299689 -8.400706 4.637189 -8.634136 -0.225401 -1.273748 0.137323 -2.094884 -0.000001 0.000001 0.000000 0.000011 -0.017278 0.141774 0.031568 -0.663141 5.449911 0.000006 -0.017276 0.141773 0.000002 -0.000000 -0.000001 -22.146779 11.272243 -8.978737 21.907460 -4.911694 -2.113511 13.180308 -0.175166 8.079479 -1.626784 0.000001 0.000003 0.000000 0.000000 0.000000 -6.467598 7.586804 1.626020 59.238729 -2.268750 -1.205309 -28.498114 1.153478 -2.639112 -13.751108 0.000001 0.000000 -0.000000 -0.000001 -0.000000 
-3.759881 80.202484 29.012512 -10.237301 -1.258204 3.819118 12.198317 0.740946 0.218586 2.537110 0.112214 -2.186502 2.540639 0.062213 -2.183490 -1.083458 0.880860 -2.234116 -14.841895 1.269125 1.932770 -0.000001 -0.000000 -0.000000 1.085872 -0.901238 -7.807337 -35.219826 -40.668944 -52.604628 -0.000005 -8.793369 0.000000 -64.833399 -1.834837 7.581273 0.026145 0.600788 -4.984821 0.800248 3.226754 -27.850175 0.026159 0.600781 -4.984793 -0.000002 0.000003 0.000001 -1.134335 4.507820 0.471401 3.939040 7.948698 0.746804 -0.579469 1.574994 2.538722 -0.000001 0.000001 0.000001 1.677258 6.240480 -1.539486 -26.948919 22.836678 75.989796 -0.000031 50.834072 0.000036 -42.072886 -3.639721 -11.758326 -1.952961 -3.313809 -8.310358 4.637190 -8.634125 -0.225372 -1.273745 0.137318 -2.094878 -0.000000 -0.000005 -0.000001 0.000031 -0.019931 0.163635 0.032276 -0.670602 5.511450 0.000034 -0.019948 0.163631 -0.000001 -0.000001 0.000000 -24.582191 9.821757 -7.008978 21.377572 -4.651420 -1.904317 14.814144 -0.432981 5.102433 -1.947706 -0.000002 -0.000002 0.000000 0.000000 -0.000000 -5.843487 4.671048 2.523167 54.408850 0.436719 -1.570596 -28.648279 1.938599 -4.468607 -11.751248 -0.000000 -0.000002 0.000000 -0.000000 -0.000000 
-4.128705 80.620766 27.632591 -9.103016 -0.203182 2.471052 11.409735 0.606330 -0.231904 2.722310 0.074301 -1.479001 2.723902 0.045621 -1.476694 -0.514072 0.532256 -0.827695 -16.767554 1.351821 1.295347 -0.000000 0.000000 0.000000 1.164533 -2.024055 -6.339581 -37.434962 -42.355803 -58.939833 0.000005 -8.254744 0.000009 -65.697711 -2.475126 7.995140 0.022929 0.562680 -4.667754 0.732193 3.094718 -26.616014 0.022928 0.562669 -4.667752 -0.000001 0.000001 -0.000000 -1.167500 4.448060 0.896225 3.939065 7.948722 0.746803 -0.579459 1.574998 2.538718 0.000000 0.000004 0.000004 1.647237 5.879461 -0.565817 -25.383729 23.226082 71.364590 0.000009 51.837584 -0.000015 -41.143933 -4.308993 -10.641448 -1.940510 -3.347252 -8.096308 4.637193 -8.634132 -0.225379 -1.273760 0.137318 -2.094869 -0.000000 0.000004 0.000000 0.000070 -0.030981 0.254196 0.035328 -0.701483 5.766165 0.000065 -0.030969 0.254204 -0.000000 -0.000001 0.000001 -27.710687 8.512613 -4.664184 21.278766 -4.992510 -1.445726 16.388925 -1.034135 -1.194421 -1.598058 0.000001 0.000010 0.000000 0.000000 -0.000000 -5.278238 0.970600 3.212630 49.172065 2.874281 -1.674995 -28.194032 2.388784 -5.862109 -8.647682 -0.000002 0.000001 0.000000 0.000001 -0.000000 
-4.470509 81.154121 26.075432 -8.112429 1.107708 1.685966 10.820473 0.382939 -1.174092 2.885982 0.033235 -0.727347 2.886416 0.026900 -0.726238 -0.140814 0.261157 0.129039 -18.469286 1.122446 0.927101 0.000000 0.000000 -0.000000 1.326834 -3.532870 -4.888681 -39.808156 -44.537109 -63.735377 0.000005 -7.774899 -0.000001 -66.832943 -3.612277 7.179340 0.021215 0.541188 -4.489283 0.695140 3.019782 -25.921504 0.021206 0.541205 -4.489300 -0.000002 -0.000001 -0.000003 -1.207939 4.373737 1.421991 3.939049 7.948720 0.746802 -0.579473 1.575006 2.538701 -0.000002 0.000003 -0.000000 1.639441 5.675663 0.166187 -24.367835 23.638409 66.176057 -0.000018 52.302966 0.000034 -39.385627 -4.824853 -8.686788 -1.923106 -3.393445 -7.800225 4.637190 -8.634135 -0.225381 -1.273759 0.137328 -2.094872 -0.000000 0.000001 -0.000000 0.000229 -0.057141 0.468806 0.043101 -0.774611 6.369812 0.000238 -0.057133 0.468807 -0.000000 0.000001 -0.000000 -30.202533 7.590388 -2.414195 20.747470 -6.726123 -0.886956 18.206496 -2.099554 -9.992089 -0.013554 0.000000 -0.000002 0.000000 0.000000 0.000000 -4.912502 -1.519108 3.717005 44.286957 3.679907 -1.384247 -27.122309 2.290552 -6.340379 -4.840710 0.000001 0.000001 -0.000000 -0.000001 -0.000000 
-4.815319 81.934425 24.236172 -7.551969 2.342036 1.737412 10.628442 0.029488 -2.677410 2.946960 -0.006445 -0.040672 2.947010 0.008009 -0.041063 0.026220 0.075510 0.626549 -19.517942 0.696853 0.834732 0.000001 -0.000000 -0.000000 1.515421 -5.019903 -3.599286 -42.078176 -45.742989 -66.894422 -0.000002 -9.054716 0.000002 -66.686149 -4.968490 6.810595 0.018802 0.509588 -4.226556 0.642282 2.908648 -24.899219 0.018800 0.509581 -4.226546 -0.000001 -0.000001 0.000000 -1.276504 4.243845 2.334588 3.939040 7.948707 0.746797 -0.579461 1.575005 2.538718 -0.000001 -0.000004 -0.000000 1.637220 5.611803 0.437422 -23.293838 24.059471 60.611891 0.000012 52.644274 -0.000008 -38.182308 -4.298297 -6.634866 -1.910386 -3.426740 -7.586253 4.637195 -8.634123 -0.225396 -1.273752 0.137326 -2.094867 -0.000000 0.000004 0.000000 0.000628 -0.093316 0.765715 0.055123 -0.875656 7.204979 0.000641 -0.093308 0.765732 -0.000001 -0.000001 0.000001 -29.975877 7.763069 -1.791066 21.600936 -7.483514 0.163148 15.143924 -1.863804 -11.866818 2.318988 -0.000001 0.000011 -0.000000 -0.000000 -0.000001 -4.841295 -2.512390 3.739323 39.943332 3.386226 -1.163239 -25.214577 2.098617 -6.199871 -2.017845 0.000001 -0.000001 -0.000000 0.000001 -0.000000 
